<?xml version="1.0" encoding="utf-8"?>
<!-- Generator: Adobe Illustrator 26.0.2, SVG Export Plug-In . SVG Version: 6.00 Build 0)  -->
<svg version="1.1" id="Layer_1" xmlns="http://www.w3.org/2000/svg" xmlns:xlink="http://www.w3.org/1999/xlink" x="0px" y="0px"
	 viewBox="0 0 512 512" style="enable-background:new 0 0 512 512;" xml:space="preserve">
<style type="text/css">
	.st0{fill:#FFD24F;}
	.st1{fill:none;stroke:#000000;stroke-width:0.5;}
	.st2{fill:none;stroke:#000000;stroke-width:0.648;}
	.st3{fill-rule:evenodd;clip-rule:evenodd;}
	.st4{fill-rule:evenodd;clip-rule:evenodd;fill:#FFFFFF;}
	.st5{fill:#010101;}
	.st6{fill:#FDD700;}
	.st7{fill-rule:evenodd;clip-rule:evenodd;fill:#BF311A;}
</style>
<path class="st0" d="M479.5242,0.0017H32.4735"/>
<path class="st1" d="M479.5242,0.0017H32.4735"/>
<path class="st2" d="M31.997,0h447.995c17.6236,0,32.0024,14.3736,32.0024,31.9969V479.992c0,17.6237-14.3789,32.008-32.0024,32.008
	H31.997c-17.6236,0-31.9914-14.3843-31.9914-32.008V31.9969C0.0055,14.3736,14.3734,0,31.997,0z"/>
<path class="st3" d="M32.1095,8.8884h172.4692h246.609c12.5945,0,32.233-3.4696,43.0377,4.9413
	c11.9302,9.3113,8.8777,26.7098,8.8777,40.0017v239.6365v185.8158c0,15.8778-12.7153,23.8166-27.1216,23.8166h-74.4911H134.9685
	H44.4954c-14.1208,0-29.9271-0.066-34.72-16.8054c-1.3726-4.7768-0.8839-10.1349-0.8839-15.0542v-32.958V322.5384V69.4566
	C8.8914,50.1805,1.6718,8.9598,32.1095,8.8884"/>
<path class="st4" d="M32.2758,21.3295h172.9249h246.4607h25.2275c3.5741,0,6.9341,0.0442,9.8495,2.4489
	c7.3184,6.0227,3.92,23.0807,3.92,30.9427v240.8991V479.339c0,9.4487-7.7796,11.3209-15.4713,11.3209h-76.3358H131.8022H43.2068
	c-7.9004,0-19.3914,1.7787-21.6534-8.5265c-0.8455-3.8925-0.2196-8.4876-0.2196-12.4186v-34.3744V317.8279V66.4702V32.6504
	C21.3339,26.5014,25.8852,21.2474,32.2758,21.3295"/>
<path id="mark1" class="st5" d="M398.1463,161.1991l7.0899,11.633l-35.6261,21.7129l-7.0899-11.633L398.1463,161.1991z"/>
<path id="mark1_00000089551665316420588540000011141817829027230090_" class="st5" d="M426.36,244.7856l0.3236,13.6194
	l-41.7096,0.9909l-0.3236-13.6195L426.36,244.7856z"/>
<path id="mark1_00000058561758338595210560000008160925282974438546_" class="st5" d="M409.0005,331.2804l-6.5295,11.9566
	l-36.617-19.9966l6.5295-11.9566L409.0005,331.2804z"/>
<path id="mark1_00000157268259101358262470000004278773604876812209_" class="st5" d="M350.7193,397.5074l-11.633,7.0899
	l-21.7129-35.6261l11.633-7.0899L350.7193,397.5074z"/>
<path id="mark1_00000099652443313311614030000005963848970671177359_" class="st5" d="M267.1328,425.7211l-13.6195,0.3235
	l-0.9909-41.7096l13.6195-0.3235L267.1328,425.7211z"/>
<path id="mark1_00000101079071235190123620000006281502626240671929_" class="st5" d="M180.638,408.3617l-11.9566-6.5295
	l19.9966-36.617l11.9566,6.5295L180.638,408.3617z"/>
<path id="mark1_00000032614248335578613920000017873121995082116495_" class="st5" d="M114.411,350.0805l-7.0899-11.633
	l35.6261-21.713l7.0899,11.633L114.411,350.0805z"/>
<path id="mark1_00000155104660744587143960000012108357386731504558_" class="st5" d="M86.1973,266.494l-0.3236-13.6194
	l41.7096-0.9909l0.3236,13.6194L86.1973,266.494z"/>
<path id="mark1_00000034064608997881497200000009047050589400464517_" class="st5" d="M103.5568,179.9991l6.5295-11.9566
	l36.617,19.9966l-6.5295,11.9566L103.5568,179.9991z"/>
<path id="mark1_00000111880023138384107510000003314535214976566714_" class="st5" d="M161.8379,113.7721l11.633-7.0899
	l21.7129,35.6261l-11.633,7.0899L161.8379,113.7721z"/>
<path id="mark1_00000148637558754497587120000011177209873989628059_" class="st5" d="M245.4244,85.5584l13.6194-0.3236
	l0.9909,41.7096l-13.6194,0.3236L245.4244,85.5584z"/>
<path id="mark1_00000050663206966538445020000001182104736261320849_" class="st5" d="M331.9193,102.9179l11.9566,6.5295
	l-19.9966,36.617l-11.9566-6.5295L331.9193,102.9179z"/>
<polygon class="st5" points="408.212,311.6248 266.2468,251.0231 270.8418,145.5829 253.8382,144.6504 247.3386,242.9516 
	220.2636,231.3939 213.7087,247.1109 246.1889,260.3405 243.8385,295.8889 264.2428,297.0079 265.498,268.2053 402.968,324.1984 "/>
<circle class="st6" cx="256.2786" cy="255.6398" r="0.8515"/>
<path class="st7" d="M255.9945,31.9969c123.3703,0,223.9948,100.6245,223.9948,224.0002
	c0,123.3704-100.6245,223.9949-223.9948,223.9949S31.9997,379.3676,31.9997,255.9971
	C31.9997,132.6214,132.6241,31.9969,255.9945,31.9969 M368.0056,398.4352c-31.2667,24.7224-71.6361,38.8925-112.0111,38.8925
	c-99.8723,0-181.3304-81.4583-181.3304-181.3305c0-40.375,14.1647-81.458,38.9585-112.6259L368.0056,398.4352z M398.3665,367.9093
	c24.7937-31.1622,38.9585-71.5372,38.9585-111.9122c0-99.8722-81.4582-181.3305-181.3304-181.3305
	c-40.3749,0-80.7499,14.1648-112.0111,38.9146L398.3665,367.9093z"/>
</svg>
